<svg width="368" height="346" viewBox="0 0 368 346" fill="none" xmlns="http://www.w3.org/2000/svg">
<path d="M201.416 273.847H116.909V339.026H201.416V273.847Z" fill="#EBEBEB"/>
<path d="M180.247 338.571C180.133 338.571 180.036 324.039 180.036 306.116C180.036 288.192 180.133 273.66 180.247 273.66C180.36 273.66 180.458 288.192 180.458 306.116C180.458 324.039 180.36 338.571 180.247 338.571Z" fill="#E0E0E0"/>
<path d="M194.251 324.193H187.776V331.52H194.251V324.193Z" fill="#FAFAFA"/>
<path d="M152.294 274.017H142.695V287.924H152.294V274.017Z" fill="#E0E0E0"/>
<path d="M152.294 324.924H142.695V338.831H152.294V324.924Z" fill="#E0E0E0"/>
<path d="M354.762 257.505H248.201V339.691H354.762V257.505Z" fill="#EBEBEB"/>
<path d="M328.059 339.107C327.945 339.107 327.848 320.794 327.848 298.196C327.848 275.599 327.945 257.286 328.059 257.286C328.172 257.286 328.27 275.599 328.27 298.196C328.27 320.794 328.18 339.107 328.059 339.107Z" fill="#E0E0E0"/>
<path d="M345.723 320.98H337.552V330.214H345.723V320.98Z" fill="#FAFAFA"/>
<path d="M292.812 257.716H280.706V275.25H292.812V257.716Z" fill="#E0E0E0"/>
<path d="M292.812 321.905H280.706V339.439H292.812V321.905Z" fill="#E0E0E0"/>
<path d="M47.4942 259.923C51.8108 257.7 56.8901 257.408 61.6774 258.203C64.2495 258.625 66.9271 259.396 68.6797 261.327C70.4323 263.258 70.7569 266.658 68.7528 268.321C67.5519 269.311 65.8885 269.457 64.3306 269.441C60.582 269.392 56.4277 268.735 53.4336 270.991C51.7216 272.281 50.5856 274.415 48.5652 275.048C46.5449 275.68 44.3135 274.488 43.2587 272.686C42.2828 270.808 42.0678 268.626 42.6583 266.593C42.8972 265.184 43.4578 263.849 44.2965 262.693C45.1353 261.536 46.2295 260.588 47.4942 259.923Z" fill="#EBEBEB"/>
<path d="M37.6113 240.847C40.2484 244.612 45.3764 243.371 47.7538 241.066C50.1312 238.762 51.1373 235.435 52.0461 232.263C54.1395 225.001 56.241 217.382 54.6912 209.99C54.3181 207.749 53.3324 205.654 51.8432 203.937C51.0893 203.094 50.1281 202.463 49.055 202.106C47.9819 201.748 46.8341 201.678 45.7253 201.901C43.137 202.582 41.5304 205.146 40.3701 207.524C36.9491 214.631 35.1584 222.412 35.1285 230.299C35.1285 233.975 35.5423 237.821 37.6113 240.847Z" fill="#EBEBEB"/>
<path d="M30.3737 246.251C33.2379 242.852 33.7816 237.902 32.5077 233.642C31.2338 229.383 28.3533 225.764 25.0347 222.802C21.1315 219.33 16.5898 216.652 11.6629 214.915C9.7534 214.144 7.69948 213.795 5.64236 213.893C4.61616 213.952 3.61985 214.26 2.74021 214.792C1.86057 215.324 1.12428 216.062 0.59548 216.944C-0.816348 219.63 0.538682 222.883 1.99919 225.545C4.57116 230.227 7.50661 234.701 10.7785 238.924C13.4155 242.316 16.4583 245.667 20.4422 247.201C24.4262 248.734 28.6292 248.556 30.7551 245.773" fill="#EBEBEB"/>
<path d="M37.4329 297.661C37.5738 297.103 37.6554 296.532 37.6763 295.957C37.798 294.708 37.944 293.142 38.1307 291.283C38.3632 288.984 38.7126 286.699 39.1774 284.435C39.787 281.668 40.6201 278.954 41.6683 276.321C42.6964 273.706 44.0867 271.248 45.7983 269.019C47.1977 267.206 48.9789 265.724 51.0156 264.678C52.4008 263.995 53.8849 263.535 55.4134 263.315C55.9887 263.292 56.56 263.208 57.1173 263.063C56.543 263 55.9634 263 55.389 263.063C53.8018 263.183 52.249 263.587 50.8047 264.256C48.6539 265.271 46.768 266.77 45.2953 268.638C43.5039 270.896 42.0599 273.409 41.0111 276.094C39.9641 278.759 39.1497 281.509 38.5769 284.314C38.1355 286.606 37.8293 288.923 37.66 291.251C37.514 293.239 37.4572 294.845 37.4329 295.957C37.373 296.523 37.373 297.095 37.4329 297.661Z" fill="#E0E0E0"/>
<path d="M37.7574 294.075C37.8056 293.807 37.8219 293.535 37.8061 293.263C37.8061 292.663 37.8061 291.908 37.8061 290.991C37.8061 289.02 37.8061 286.164 37.9035 282.642C38.082 275.599 38.7149 268.037 39.8589 257.335C40.9705 247.282 42.4554 235.59 44.0295 227.987C44.3622 226.259 44.703 224.701 45.0275 223.338C45.3521 221.975 45.5874 220.79 45.8389 219.841C46.0904 218.891 46.2284 218.218 46.3744 217.634C46.4538 217.37 46.5002 217.097 46.5124 216.822C46.3901 217.059 46.2975 217.309 46.2365 217.569C46.058 218.145 45.8389 218.859 45.5711 219.743C45.3034 220.628 44.9788 221.861 44.638 223.216C44.2973 224.571 43.9078 226.129 43.5427 227.857C41.5935 236.849 40.1282 245.939 39.153 255.087C37.9846 265.798 37.4572 275.551 37.4085 282.61C37.4085 286.139 37.4085 289.003 37.5302 290.975C37.587 291.892 37.6357 292.647 37.6682 293.239C37.6642 293.52 37.6942 293.801 37.7574 294.075Z" fill="#E0E0E0"/>
<path d="M37.806 275.267C37.8679 274.475 37.8679 273.68 37.806 272.889C37.7168 271.364 37.5058 269.165 37.0758 266.463C36.5451 263.304 35.8353 260.178 34.9499 257.1C33.9266 253.311 32.6165 249.606 31.0309 246.016C28.3161 239.401 24.4202 233.336 19.5334 228.117C18.6855 227.22 17.7803 226.38 16.8234 225.601C16.4095 225.244 16.012 224.895 15.6712 224.62L14.665 223.897C14.0336 223.416 13.3632 222.987 12.6609 222.615C12.5473 222.77 15.4927 224.506 19.2089 228.457C23.9359 233.726 27.7282 239.763 30.4223 246.308C31.9806 249.874 33.2954 253.542 34.3576 257.286C35.2499 260.336 35.9892 263.429 36.5727 266.552C37.0596 269.222 37.3841 271.421 37.5139 272.914C37.5486 273.704 37.6463 274.491 37.806 275.267Z" fill="#E0E0E0"/>
<path d="M18.3651 305.58L20.2475 331.407H53.4255L55.3079 305.58H18.3651Z" fill="#EBEBEB"/>
<path d="M59.2594 295.405H15.16V305.58H59.2594V295.405Z" fill="#EBEBEB"/>
<path d="M15.16 330.417V333.232H17.2372H58.5372V330.417H15.16Z" fill="#E0E0E0"/>
<path d="M19.2657 337.89L17.2372 332.924H56.955L54.5857 337.89H19.2657Z" fill="#E0E0E0"/>
<path d="M54.6913 314.019C54.6498 314.106 54.5981 314.187 54.5371 314.262C54.4073 314.432 54.2369 314.651 54.0421 314.919L52.111 317.353L52.0218 317.467L51.9406 317.353L47.194 310.789H47.4617L42.7881 317.402L42.642 317.613L42.4797 317.418L36.9379 310.822H37.2544L36.9541 311.211L31.9965 317.418L31.8261 317.629L31.6801 317.41L26.9983 310.797H27.2742L21.5133 317.353L21.4159 317.475L21.3348 317.337L19.5335 314.351C19.3387 314.027 19.1927 313.759 19.071 313.54C19.0098 313.449 18.9607 313.351 18.9249 313.248C19.0009 313.325 19.0663 313.413 19.1197 313.507L19.6308 314.278L21.5214 317.256H21.3429L27.0227 310.619L27.1606 310.448L27.2904 310.627L32.0127 317.215H31.7044L36.6458 310.992C36.7513 310.862 36.8568 310.732 36.946 310.611L37.1083 310.408L37.2706 310.603L42.7962 317.215H42.4879L47.2102 310.635L47.3481 310.44L47.4779 310.635C49.3523 313.304 50.9426 315.568 52.1272 317.272H51.9568L53.9691 314.838C54.1882 314.586 54.3667 314.384 54.5046 314.213C54.562 314.144 54.6244 314.079 54.6913 314.019Z" fill="#F5F5F5"/>
<path d="M55.7704 305.41C55.7704 305.523 47.4536 305.621 37.2057 305.621C26.9577 305.621 18.6409 305.523 18.6409 305.41C18.6409 305.296 26.9496 305.207 37.2057 305.207C47.4617 305.207 55.7704 305.296 55.7704 305.41Z" fill="#F5F5F5"/>
<path d="M288.448 12.6206L281.648 12.6573L281.832 46.4918L288.631 46.455L288.448 12.6206Z" fill="#E0E0E0"/>
<path d="M240.35 12.7106L222.743 12.8058L222.844 31.4838L240.451 31.3885L240.35 12.7106Z" fill="#EBEBEB"/>
<path d="M257.875 12.6158L240.268 12.7111L240.369 31.389L257.976 31.2937L257.875 12.6158Z" fill="#F5F5F5"/>
<path d="M222.764 17.9748C234.469 18.0722 246.181 18.0181 257.897 17.8126C257.947 17.8126 257.994 17.7929 258.029 17.7579C258.064 17.7229 258.084 17.6754 258.084 17.6259C258.084 17.5764 258.064 17.529 258.029 17.494C257.994 17.459 257.947 17.4393 257.897 17.4393C246.197 17.3744 234.464 17.4393 222.764 17.6584C222.728 17.6666 222.696 17.6867 222.673 17.7154C222.65 17.7442 222.638 17.7798 222.638 17.8166C222.638 17.8534 222.65 17.8891 222.673 17.9178C222.696 17.9466 222.728 17.9667 222.764 17.9748Z" fill="#E0E0E0"/>
<path d="M243.76 31.0781L211.767 31.2512L211.849 46.4726L243.842 46.2995L243.76 31.0781Z" fill="#EBEBEB"/>
<path d="M275.597 30.9058L243.605 31.0789L243.687 46.3003L275.68 46.1272L275.597 30.9058Z" fill="#F5F5F5"/>
<path d="M211.786 35.5008C233.036 35.7362 254.359 35.5009 275.618 35.1844C275.668 35.1844 275.715 35.1647 275.75 35.1297C275.785 35.0947 275.805 35.0473 275.805 34.9978C275.805 34.9483 275.785 34.9008 275.75 34.8658C275.715 34.8308 275.668 34.8112 275.618 34.8112C254.368 34.6976 233.036 34.7057 211.786 35.1763C211.742 35.1763 211.701 35.1934 211.671 35.2238C211.64 35.2543 211.623 35.2955 211.623 35.3386C211.623 35.3816 211.64 35.4229 211.671 35.4533C211.701 35.4838 211.742 35.5008 211.786 35.5008Z" fill="#E0E0E0"/>
<path d="M323.766 46.4871H199.818V51.9396H323.766V46.4871Z" fill="#E0E0E0"/>
<path d="M225.141 49.1078H220.11V67.713H225.141V49.1078Z" fill="#E0E0E0"/>
<path d="M300.252 49.1078H295.221V67.713H300.252V49.1078Z" fill="#E0E0E0"/>
<path d="M295.082 1.58005e-05L288.282 0.0368042L288.534 46.5693L295.333 46.5326L295.082 1.58005e-05Z" fill="#EBEBEB"/>
<path d="M305.701 8.66495L295.137 8.72211L295.341 46.435L305.905 46.3778L305.701 8.66495Z" fill="#F5F5F5"/>
<path d="M305.632 15.9463C302.12 16.1944 298.595 16.1944 295.083 15.9463C298.595 15.7091 302.12 15.7091 305.632 15.9463Z" fill="#E0E0E0"/>
<path d="M305.632 14.4047C303.877 14.5822 302.112 14.6419 300.349 14.5832C298.587 14.6416 296.822 14.5819 295.067 14.4047C298.579 14.1566 302.104 14.1566 305.615 14.4047H305.632Z" fill="#E0E0E0"/>
<path d="M305.632 40.7181C302.12 40.9662 298.595 40.9662 295.083 40.7181C298.595 40.4808 302.12 40.4808 305.632 40.7181Z" fill="#E0E0E0"/>
<path d="M305.632 39.1359C302.12 39.3731 298.595 39.3731 295.083 39.1359C298.595 38.8878 302.12 38.8878 305.632 39.1359Z" fill="#E0E0E0"/>
<path d="M300.52 35.6794C300.422 35.6794 300.341 31.8739 300.341 27.1841C300.341 22.4943 300.422 18.6807 300.52 18.6807C300.617 18.6807 300.706 22.4861 300.706 27.1841C300.706 31.882 300.625 35.6794 300.52 35.6794Z" fill="#E0E0E0"/>
<path d="M317.251 17.9424H305.753V46.4059H317.251V17.9424Z" fill="#EBEBEB"/>
<path d="M291.578 9.91774C292.658 9.91774 293.534 9.04225 293.534 7.96229C293.534 6.88232 292.658 6.00684 291.578 6.00684C290.498 6.00684 289.623 6.88232 289.623 7.96229C289.623 9.04225 290.498 9.91774 291.578 9.91774Z" fill="#E0E0E0"/>
<path d="M292.187 13.3417H290.978V41.0264H292.187V13.3417Z" fill="#E0E0E0"/>
<path d="M358.421 339.245C358.421 339.366 280.43 339.456 184.255 339.456C88.0802 339.456 10.0726 339.366 10.0726 339.245C10.0726 339.123 88.0477 339.034 184.255 339.034C280.462 339.034 358.421 339.131 358.421 339.245Z" fill="#263238"/>
<path d="M102.466 41.4647C106.293 46.1474 108.364 52.0187 108.324 58.0658C108.284 61.4898 107.651 65.2628 109.647 68.0459C111.156 70.1555 113.915 71.2184 115.14 73.5065C116.617 76.2571 115.359 79.738 116.268 82.7239C117.55 86.9594 122.516 88.7363 125.461 92.0387C126.717 93.499 127.595 95.2448 128.019 97.1233C128.444 99.0018 128.401 100.956 127.895 102.814C127.359 104.664 126.388 106.36 125.065 107.76C123.741 109.16 122.102 110.224 120.284 110.863C118.344 111.628 116.179 111.593 114.264 110.766C112.276 109.776 111.018 107.739 110.045 105.751C108.089 101.84 90.9119 80.7035 89.9382 76.4356" fill="#263238"/>
<path d="M89.9707 36.4828C82.944 35.3468 76.177 40.0123 73.2316 46.4872C70.2863 52.9621 70.1889 60.2808 69.986 67.4211C69.7832 74.5613 69.2639 81.9612 65.637 88.0791C63.3326 91.9656 59.7625 95.3816 59.2026 99.8523C58.6995 103.861 60.7767 107.901 60.087 111.885C59.4866 115.358 56.8414 118.376 56.9469 121.89C57.0767 126.125 61.4339 129.314 65.6613 129.427C69.8887 129.541 73.8483 127.326 77.1669 124.697C82.5738 120.404 86.9004 114.905 89.8003 108.64" fill="#263238"/>
<path d="M78.4083 53.2298C78.1876 51.4623 78.3242 49.6685 78.8101 47.9547C79.2959 46.241 80.1211 44.6424 81.2366 43.2537C82.3521 41.865 83.7352 40.7145 85.3039 39.8706C86.8726 39.0266 88.5948 38.5064 90.3683 38.3408C97.4518 37.6593 103.756 42.9414 104.819 49.9843C105.752 56.159 106.548 62.3904 106.523 64.6542C106.434 71.478 102.466 74.1313 100.843 74.9345C100.26 75.144 99.6562 75.2936 99.0421 75.3808V75.4295L100.551 83.2675C101.241 88.4036 98.3768 93.0042 93.2488 93.7263C88.1208 94.4485 84.0881 90.5295 83.3011 85.3934L78.4083 53.2298Z" fill="#FFBE9D"/>
<path d="M103.424 52.9702C103.31 53.1325 102.409 52.6538 101.257 52.8242C100.105 52.9946 99.3342 53.6924 99.1882 53.5707C99.0421 53.4489 99.1882 53.2461 99.5452 52.9215C99.9889 52.4893 100.556 52.2057 101.168 52.1102C101.768 52.0176 102.383 52.1199 102.921 52.4023C103.326 52.6619 103.48 52.9053 103.424 52.9702Z" fill="#263238"/>
<path d="M93.1514 55.4693C93.0378 55.6315 92.1372 55.1447 90.9769 55.3151C89.8166 55.4855 89.062 56.1914 88.9159 56.0697C88.7699 55.948 88.9159 55.737 89.2729 55.4206C89.7166 54.9884 90.2837 54.7048 90.8957 54.6092C91.4969 54.5236 92.1099 54.6286 92.6483 54.9094C93.0459 55.1609 93.2082 55.3962 93.1514 55.4693Z" fill="#263238"/>
<path d="M97.3625 61.6602C97.9429 61.381 98.5564 61.1765 99.1882 61.0517C99.4803 60.9786 99.748 60.8813 99.7724 60.6703C99.7461 60.3739 99.6332 60.0917 99.4478 59.8589L98.2388 57.7006C96.5593 54.6822 95.3016 52.1832 95.4233 52.1101C95.545 52.0371 97.0461 54.4469 98.6689 57.4653C99.0827 58.2118 99.4803 58.9258 99.8373 59.5993C100.073 59.9292 100.188 60.3305 100.162 60.7352C100.135 60.8459 100.083 60.9489 100.01 61.0362C99.9367 61.1235 99.8443 61.1926 99.7399 61.2383C99.5817 61.3075 99.4154 61.3566 99.245 61.3843C98.6322 61.558 97.9994 61.6507 97.3625 61.6602Z" fill="#263238"/>
<path d="M98.9772 75.3889C98.9772 75.3889 94.5713 76.4032 88.5021 73.8635C88.5021 73.8635 91.1229 79.5027 99.391 77.4985L98.9772 75.3889Z" fill="#EB996E"/>
<path d="M92.5591 52.4428C92.4941 52.7755 91.3176 52.7917 89.9869 53.1569C88.6562 53.522 87.6096 54.0413 87.3905 53.7897C87.2931 53.668 87.4391 53.3435 87.8367 52.9783C88.3721 52.5205 89.0046 52.1904 89.6865 52.0133C90.3683 51.8362 91.0815 51.8166 91.772 51.956C92.3075 52.0777 92.5591 52.2887 92.5591 52.4428Z" fill="#263238"/>
<path d="M102.474 50.4143C102.312 50.7064 101.476 50.5523 100.519 50.674C99.5614 50.7957 98.7744 51.1121 98.5472 50.8606C98.4498 50.7389 98.5472 50.463 98.8555 50.1628C99.281 49.7856 99.815 49.5527 100.381 49.4975C100.94 49.4301 101.506 49.5349 102.004 49.7977C102.393 50.0168 102.547 50.2683 102.474 50.4143Z" fill="#263238"/>
<path d="M90.6442 56.9623C90.662 57.0878 90.7046 57.2086 90.7695 57.3176C90.8344 57.4265 90.9203 57.5215 91.0222 57.597C91.1241 57.6725 91.24 57.727 91.3632 57.7573C91.4863 57.7876 91.6143 57.7932 91.7396 57.7737C91.8614 57.7596 91.9792 57.7215 92.0862 57.6615C92.1932 57.6015 92.2872 57.5209 92.3627 57.4242C92.4382 57.3276 92.4937 57.2169 92.526 57.0986C92.5584 56.9802 92.5668 56.8567 92.551 56.7351C92.5129 56.4824 92.3762 56.2552 92.1709 56.1031C91.9656 55.951 91.7084 55.8865 91.4556 55.9237C91.3333 55.9367 91.2149 55.9741 91.1074 56.0337C90.9999 56.0934 90.9054 56.1741 90.8297 56.271C90.754 56.3679 90.6986 56.479 90.6667 56.5978C90.6348 56.7165 90.6272 56.8405 90.6442 56.9623Z" fill="#263238"/>
<path d="M100.876 54.7472C100.914 54.9998 101.051 55.2271 101.256 55.3792C101.461 55.5313 101.718 55.5958 101.971 55.5586C102.093 55.5445 102.211 55.5064 102.318 55.4464C102.425 55.3864 102.519 55.3058 102.594 55.2091C102.67 55.1125 102.725 55.0018 102.758 54.8835C102.79 54.7652 102.799 54.6416 102.783 54.52C102.745 54.2673 102.608 54.0401 102.403 53.888C102.197 53.7359 101.94 53.6714 101.687 53.7086C101.565 53.7216 101.447 53.759 101.339 53.8187C101.232 53.8783 101.137 53.959 101.061 54.0559C100.986 54.1528 100.93 54.2639 100.898 54.3827C100.867 54.5014 100.859 54.6254 100.876 54.7472Z" fill="#263238"/>
<path d="M99.1801 63.8996C98.8616 63.8005 98.5184 63.816 98.2101 63.9435C97.9018 64.071 97.6479 64.3023 97.4924 64.5974C97.3438 64.8684 97.2835 65.179 97.3199 65.4859C97.3562 65.7928 97.4875 66.0807 97.6952 66.3095C97.9164 66.5267 98.2075 66.6582 98.5167 66.6805C98.8259 66.7028 99.1329 66.6144 99.3829 66.4312C99.6959 66.1462 99.8852 65.7502 99.9103 65.3277C99.9654 64.9403 99.8728 64.5464 99.6507 64.2242C99.5367 64.0667 99.374 63.9511 99.1877 63.8954C99.0014 63.8396 98.802 63.8468 98.6202 63.9159" fill="#EB996E"/>
<path d="M103.919 44.4262C103.282 41.8554 101.692 39.6224 99.4722 38.1785C97.6548 36.8657 95.496 36.1076 93.2569 35.9958C91.0038 35.8988 88.8041 36.6982 87.1389 38.219C85.9574 39.3902 85.2816 40.9776 85.2565 42.6411L85.3863 41.5052C85.0454 42.4295 85.0454 43.4451 85.3863 44.3694C85.5729 44.8643 85.8001 45.3674 85.9949 45.8623C86.5757 47.2926 87.6533 48.4652 89.0295 49.1647C89.6527 49.499 90.3508 49.6693 91.058 49.6596C91.412 49.6525 91.7602 49.5682 92.0784 49.4127C92.3965 49.2571 92.6768 49.034 92.8998 48.759C93.4036 47.8795 93.56 46.8432 93.338 45.8542C93.8704 46.8315 94.6302 47.6664 95.5531 48.2884C96.0243 48.5895 96.5849 48.7192 97.1405 48.6557C97.6961 48.5921 98.2129 48.3392 98.604 47.9395C99.2693 47.1281 99.0097 45.8461 98.604 44.84C99.2317 45.789 100.111 46.5447 101.144 47.0226C101.415 47.1785 101.716 47.2763 102.028 47.3098C102.339 47.3433 102.654 47.3118 102.953 47.2173C103.192 47.0989 103.401 46.9279 103.564 46.717C103.727 46.5062 103.84 46.2611 103.894 46.0003C104.015 45.4833 104.023 44.9466 103.919 44.4262Z" fill="#263238"/>
<path d="M98.0522 46.5846C97.9792 46.5846 97.9954 45.619 97.679 44.1504C97.314 42.1989 96.3328 40.4158 94.8797 39.063C94.081 38.3367 93.1174 37.8159 92.0722 37.5457C91.2162 37.3356 90.3249 37.3135 89.4595 37.4808C88.6619 37.6672 87.9001 37.9824 87.2039 38.4139C87.2039 38.4139 87.3418 38.2111 87.6988 37.9514C88.2112 37.593 88.7865 37.3343 89.3946 37.1887C90.3046 36.9757 91.2515 36.9757 92.1615 37.1887C93.2827 37.4686 94.3153 38.0267 95.1637 38.8115C96.6852 40.2201 97.6788 42.107 97.9792 44.1585C98.0758 44.765 98.1246 45.3782 98.1252 45.9923C98.1353 46.1925 98.1106 46.3929 98.0522 46.5846Z" fill="#455A64"/>
<path d="M172.782 141.185L141.584 128.811C141.584 128.811 125.607 107.853 125.94 107.447L114.718 119.731L131.027 141.793L168.83 150.653L175.321 148.852C173.893 141.963 172.782 141.185 172.782 141.185Z" fill="#FFBE9D"/>
<path d="M104.787 81.3932L100.535 79.7704L82.1813 82.0991V85.3446L81.6539 85.4095C77.6975 86.2507 73.9028 87.7248 70.4161 89.7748C67.15 91.7686 64.5549 94.6936 62.9644 98.1739C61.3739 101.654 60.8606 105.531 61.4907 109.305C62.2372 113.946 63.6815 119.585 66.4727 122.847C71.8035 129.087 76.6719 121.378 76.6719 121.378C76.6719 121.378 80.0149 129.006 79.8201 132.616C79.6579 135.643 78.3272 141.939 77.8971 143.903C77.8795 143.981 77.878 144.062 77.8927 144.141C77.9075 144.221 77.9382 144.296 77.983 144.363C78.0278 144.429 78.0857 144.486 78.1533 144.53C78.2208 144.574 78.2965 144.603 78.3758 144.617L117.096 151.781L117.282 142.312L116.049 103.366L114.304 88.2413C114.304 88.2413 114.361 81.0199 104.787 81.3932Z" fill="#B1BFA9"/>
<path d="M113.712 85.726L128.48 107.057L116.593 121.533L113.712 85.726Z" fill="#B1BFA9"/>
<path d="M116.901 130.612C116.848 130.154 116.829 129.693 116.844 129.233C116.844 128.275 116.844 127.018 116.795 125.484C116.724 121.368 116.428 117.259 115.911 113.175C115.302 108.388 114.369 104.112 113.663 101.005L112.803 97.3532C112.679 96.9116 112.586 96.4614 112.528 96.0063C112.712 96.4279 112.859 96.8651 112.966 97.3127C113.217 98.1241 113.558 99.3979 113.947 100.94C114.995 104.943 115.792 109.008 116.333 113.11C116.855 117.211 117.109 121.342 117.096 125.476C117.096 127.099 117.055 128.348 117.006 129.233C117.011 129.695 116.975 130.156 116.901 130.612Z" fill="#263238"/>
<path d="M80.5505 98.1808C80.5505 98.2457 79.4307 98.2376 77.6375 98.3269C75.2978 98.4538 72.9708 98.7548 70.6758 99.2275C68.3814 99.709 66.1251 100.357 63.925 101.167C62.2373 101.792 61.223 102.254 61.1906 102.189C61.3985 102.026 61.6279 101.892 61.8721 101.792C62.3184 101.548 62.9837 101.24 63.8195 100.891C68.1978 99.0829 72.8769 98.114 77.6132 98.0348C78.522 98.0348 79.236 98.0348 79.7634 98.0835C80.0292 98.0749 80.2947 98.1078 80.5505 98.1808Z" fill="#FAFAFA"/>
<path d="M114.751 107.942C114.157 108.158 113.538 108.294 112.909 108.348C109.909 108.786 106.869 108.889 103.846 108.656C103.214 108.645 102.587 108.552 101.979 108.38C102.606 108.324 103.236 108.324 103.862 108.38C105.014 108.38 106.612 108.38 108.373 108.38C110.134 108.38 111.724 108.202 112.876 108.096C113.495 107.988 114.123 107.936 114.751 107.942Z" fill="#FAFAFA"/>
<path d="M121.526 98.2944C120.631 99.3278 119.56 100.193 118.361 100.85C117.23 101.615 115.968 102.165 114.637 102.473C114.588 102.359 116.26 101.662 118.142 100.461C120.025 99.26 121.445 98.197 121.526 98.2944Z" fill="#FAFAFA"/>
<path d="M115.562 88.4036C113.002 90.7064 109.74 92.0786 106.304 92.2983C106.304 92.1685 108.535 91.8277 111.099 90.7323C113.664 89.637 115.481 88.2981 115.562 88.4036Z" fill="#FAFAFA"/>
<path d="M116.365 124.462C116.127 124.622 115.871 124.756 115.603 124.859C115.092 125.103 114.353 125.403 113.412 125.752C110.967 126.631 108.442 127.272 105.874 127.667C103.306 128.063 100.705 128.207 98.109 128.097C97.111 128.056 96.3077 127.983 95.756 127.91C95.4671 127.891 95.1813 127.839 94.904 127.756C94.904 127.683 96.1373 127.756 98.1496 127.805C103.308 127.853 108.441 127.064 113.347 125.468C115.197 124.859 116.341 124.397 116.365 124.462Z" fill="#FAFAFA"/>
<path d="M116.666 135.456C116.666 135.456 116.552 135.537 116.317 135.659L115.278 136.113C114.386 136.535 113.063 137.087 111.408 137.736C109.753 138.385 107.748 139.01 105.493 139.627C100.589 140.947 95.5554 141.728 90.4819 141.955C88.1451 142.045 86.0436 142.036 84.2747 141.955C82.5059 141.874 81.086 141.744 80.1042 141.606L78.9763 141.452C78.8435 141.443 78.7125 141.415 78.5869 141.371C78.7186 141.35 78.8527 141.35 78.9844 141.371L80.1204 141.444C81.1022 141.525 82.5546 141.606 84.2829 141.655C86.0111 141.704 88.1451 141.655 90.4657 141.574C92.7863 141.493 95.3341 141.201 97.9873 140.763C100.641 140.324 103.14 139.797 105.395 139.229C107.651 138.661 109.647 138.02 111.302 137.428C112.958 136.835 114.304 136.341 115.213 135.967L116.268 135.553C116.397 135.507 116.53 135.475 116.666 135.456Z" fill="#FAFAFA"/>
<path d="M45.4981 307.95L41.1084 327.772L33.1 342.45C32.9638 342.7 32.8805 342.976 32.8551 343.26C32.8298 343.545 32.8631 343.831 32.9528 344.102C33.0426 344.372 33.1869 344.622 33.3769 344.834C33.5669 345.047 33.7985 345.219 34.0574 345.338C34.358 345.476 34.6873 345.54 35.0176 345.525C35.348 345.509 35.6698 345.415 35.9561 345.249C39.6723 343.107 53.3118 335.131 53.5471 333.662C53.8311 331.967 59.5677 313.061 59.5677 313.061L45.4981 307.95Z" fill="#B1BFA9"/>
<g opacity="0.6">
<path d="M34.0574 345.338L53.8798 332.356L53.6689 333.168C53.4954 333.892 53.0697 334.53 52.468 334.969C50.8452 336.129 46.3257 339.245 36.021 345.265C35.7252 345.439 35.391 345.536 35.0484 345.549C34.7058 345.561 34.3653 345.489 34.0574 345.338Z" fill="white"/>
</g>
<g opacity="0.6">
<path d="M51.3888 324.981C51.1026 325.1 50.8705 325.321 50.7372 325.601C50.6039 325.881 50.5788 326.2 50.6667 326.498C50.775 326.787 50.9901 327.024 51.2678 327.16C51.5455 327.296 51.8646 327.32 52.1597 327.228C52.4662 327.101 52.7143 326.865 52.8554 326.565C52.9965 326.264 53.0204 325.922 52.9224 325.605C52.7787 325.318 52.5305 325.097 52.2288 324.987C51.927 324.876 51.5946 324.886 51.2996 325.013" fill="white"/>
</g>
<path d="M40.6784 337.825C40.3511 337.095 39.8917 336.432 39.3234 335.869C38.6689 335.413 37.9337 335.086 37.157 334.904C37.157 334.847 37.441 334.758 37.9197 334.807C38.5426 334.887 39.1289 335.146 39.6074 335.553C40.0896 335.944 40.4453 336.469 40.6298 337.062C40.7677 337.525 40.7271 337.825 40.6784 337.825Z" fill="#263238"/>
<path d="M38.6256 340.121C38.512 340.186 38.0333 339.391 37.0839 338.847C36.4783 338.566 35.8549 338.325 35.2177 338.125C35.568 338.01 35.9406 337.981 36.3046 338.039C36.6687 338.096 37.0137 338.24 37.3111 338.458C38.3903 339.083 38.7392 340.097 38.6256 340.121Z" fill="#263238"/>
<path d="M44.1187 335.082C43.4287 334.317 42.68 333.606 41.8793 332.957C40.9971 332.419 40.0748 331.949 39.1205 331.553C40.2179 331.531 41.2876 331.899 42.1389 332.591C43.0775 333.156 43.7806 334.041 44.1187 335.082Z" fill="#263238"/>
<path d="M45.9606 329.167C45.8795 329.273 44.8977 328.551 43.5265 328.153C42.1552 327.756 40.9138 327.82 40.9056 327.683C41.8087 327.449 42.7583 327.463 43.6538 327.725C44.5493 327.986 45.3576 328.484 45.9931 329.167H45.9606Z" fill="#263238"/>
<path d="M47.3968 323.382C46.6053 322.893 45.7509 322.513 44.8571 322.254C43.9364 322.129 43.0029 322.129 42.0822 322.254C42.0822 322.206 42.3337 322.011 42.853 321.857C43.5356 321.671 44.2521 321.648 44.9452 321.789C45.6384 321.93 46.289 322.231 46.845 322.668C47.2589 323.058 47.4292 323.35 47.3968 323.382Z" fill="#263238"/>
<path d="M45.1573 321.159C45.1579 320.901 45.2132 320.647 45.3196 320.412C45.5495 319.743 45.914 319.127 46.3906 318.603C46.7025 318.188 47.1412 317.886 47.6402 317.743C47.8101 317.715 47.9844 317.739 48.1407 317.811C48.2969 317.884 48.4278 318.001 48.5165 318.149C48.6656 318.451 48.6974 318.798 48.6058 319.122C48.3977 319.773 47.9699 320.331 47.3956 320.701C46.8212 321.071 46.1361 321.23 45.4575 321.151C44.7884 321.055 44.1624 320.764 43.6584 320.314C43.1545 319.863 42.7952 319.274 42.6258 318.619C42.5868 318.453 42.5833 318.28 42.6154 318.113C42.6476 317.945 42.7147 317.786 42.8124 317.646C42.9245 317.515 43.0754 317.423 43.2431 317.384C43.4109 317.344 43.5868 317.359 43.7455 317.427C44.2041 317.655 44.5955 317.999 44.8814 318.425C45.3115 318.987 45.6384 319.622 45.847 320.299C45.9459 320.541 45.9928 320.801 45.9849 321.062C45.6578 320.187 45.2011 319.366 44.6299 318.627C44.364 318.281 44.019 318.002 43.6238 317.816C43.5369 317.778 43.4401 317.77 43.3479 317.792C43.2558 317.814 43.1732 317.865 43.1126 317.938C43.0559 318.033 43.0194 318.14 43.0055 318.25C42.9915 318.36 43.0004 318.472 43.0315 318.579C43.2007 319.129 43.522 319.621 43.9584 319.997C44.3948 320.373 44.9285 320.618 45.4981 320.705C46.072 320.771 46.6516 320.641 47.1423 320.336C47.633 320.031 48.0058 319.569 48.2001 319.025C48.2787 318.805 48.2787 318.564 48.2001 318.343C48.1541 318.26 48.0831 318.194 47.9972 318.153C47.9114 318.112 47.8149 318.099 47.7213 318.116C47.2985 318.232 46.9217 318.476 46.6422 318.814C46.0197 319.507 45.5178 320.3 45.1573 321.159Z" fill="#263238"/>
<g opacity="0.3">
<path d="M44.9626 310.1L44.0132 314.643L58.3668 317.029L59.5677 313.061L45.4738 307.95L44.9626 310.1Z" fill="black"/>
</g>
<path d="M109.598 315.285L108.414 331.123C108.414 331.123 124.122 337.614 124.187 340.6L93.3542 339.407L94.1656 314.644L109.598 315.285Z" fill="#B1BFA9"/>
<g opacity="0.6">
<path d="M98.961 329.419C98.6617 329.499 98.4023 329.686 98.2318 329.945C98.0613 330.204 97.9916 330.516 98.036 330.823C98.1043 331.124 98.2849 331.389 98.5411 331.562C98.7973 331.735 99.1099 331.805 99.4153 331.756C99.7336 331.671 100.009 331.472 100.189 331.196C100.369 330.921 100.44 330.588 100.389 330.263C100.286 329.955 100.069 329.698 99.7814 329.547C99.4941 329.396 99.1594 329.361 98.8474 329.451" fill="white"/>
</g>
<g opacity="0.6">
<path d="M93.3705 339.407L93.549 336.908L123.043 338.961C123.043 338.961 124.398 339.61 124.204 340.584L93.3705 339.407Z" fill="white"/>
</g>
<path d="M108.933 330.985C108.933 331.139 108.17 331.18 107.416 331.634C106.661 332.088 106.239 332.705 106.101 332.64C105.963 332.575 106.223 331.715 107.148 331.18C108.073 330.644 108.974 330.847 108.933 330.985Z" fill="#263238"/>
<path d="M112.114 332.47C112.114 332.624 111.481 332.851 110.945 333.468C110.41 334.084 110.239 334.75 110.085 334.742C109.931 334.734 109.874 333.873 110.556 333.119C111.237 332.364 112.114 332.307 112.114 332.47Z" fill="#263238"/>
<path d="M113.801 336.389C113.663 336.389 113.485 335.65 113.899 334.847C114.313 334.044 115.035 333.736 115.092 333.865C115.148 333.995 114.702 334.417 114.369 335.082C114.037 335.748 113.947 336.381 113.801 336.389Z" fill="#263238"/>
<path d="M108.787 327.35C108.722 327.48 108.04 327.244 107.164 327.269C106.288 327.293 105.639 327.536 105.541 327.407C105.444 327.277 106.126 326.766 107.164 326.749C108.203 326.733 108.884 327.236 108.787 327.35Z" fill="#263238"/>
<g opacity="0.3">
<path d="M109.379 318.425L109.168 321.248L94.0358 320.518L94.1413 317.256L109.379 318.425Z" fill="black"/>
</g>
<path d="M108.99 324.145C108.48 324.268 107.946 324.246 107.448 324.08C106.886 323.963 106.34 323.775 105.825 323.52C105.525 323.372 105.235 323.204 104.957 323.017C104.788 322.913 104.635 322.785 104.503 322.636C104.413 322.519 104.365 322.377 104.365 322.23C104.365 322.083 104.413 321.941 104.503 321.824C104.582 321.722 104.684 321.639 104.801 321.584C104.918 321.529 105.047 321.503 105.176 321.508C105.372 321.516 105.565 321.548 105.752 321.605C106.077 321.7 106.392 321.825 106.694 321.979C107.206 322.229 107.675 322.56 108.081 322.96C108.771 323.65 108.99 324.226 108.941 324.25C108.892 324.275 108.544 323.812 107.838 323.236C107.423 322.912 106.971 322.64 106.491 322.425C106.204 322.306 105.912 322.203 105.614 322.116C105.29 322.019 105.014 322.011 104.925 322.116C104.835 322.222 104.925 322.198 104.925 322.295C105.022 322.402 105.134 322.495 105.257 322.571C105.518 322.752 105.789 322.917 106.069 323.066C106.537 323.324 107.029 323.536 107.537 323.699C108.032 323.813 108.517 323.962 108.99 324.145Z" fill="#263238"/>
<path d="M108.787 324.356C108.517 323.901 108.395 323.374 108.438 322.847C108.441 322.276 108.534 321.709 108.714 321.167C108.83 320.85 108.974 320.543 109.144 320.25C109.235 320.049 109.376 319.875 109.554 319.745C109.731 319.614 109.939 319.531 110.158 319.504C110.297 319.513 110.43 319.561 110.542 319.643C110.654 319.725 110.74 319.837 110.791 319.966C110.862 320.148 110.905 320.34 110.921 320.534C110.974 320.878 110.974 321.229 110.921 321.573C110.812 322.146 110.564 322.684 110.199 323.139C109.566 323.95 108.933 324.072 108.917 324.023C108.901 323.974 109.404 323.674 109.899 322.92C110.183 322.489 110.368 322.002 110.442 321.492C110.483 321.196 110.483 320.895 110.442 320.599C110.402 320.275 110.288 319.999 110.166 320.031C110.045 320.064 109.744 320.258 109.606 320.518C109.448 320.777 109.31 321.049 109.193 321.329C109.005 321.819 108.885 322.332 108.836 322.855C108.73 323.764 108.868 324.356 108.787 324.356Z" fill="#263238"/>
<path d="M77.7268 144.471C77.7268 144.471 72.8584 144.69 69.6128 161.339C66.3673 177.989 41.6278 312.899 41.6278 312.899L59.5678 313.061L93.3705 184.797L91.1229 317.053L109.347 318.449C109.347 318.449 123.019 172.163 123.141 163.652C123.303 153.039 117.209 142.304 117.209 142.304L77.7268 144.471Z" fill="#263238"/>
<path d="M102.385 143.051C102.499 143.051 100.632 152.585 98.2226 164.293C95.8128 176.001 93.7681 185.478 93.6545 185.454C93.5409 185.43 95.399 175.92 97.8088 164.212C100.219 152.503 102.296 143.026 102.385 143.051Z" fill="#455A64"/>
<path d="M105.176 145.428C105.176 145.379 105.663 145.233 106.223 145.728C106.382 145.872 106.508 146.049 106.592 146.247C106.676 146.444 106.716 146.658 106.71 146.872C106.689 147.144 106.593 147.404 106.43 147.622C106.268 147.84 106.047 148.008 105.793 148.106C105.545 148.218 105.271 148.259 105.001 148.223C104.731 148.187 104.477 148.076 104.267 147.903C104.111 147.756 103.987 147.577 103.904 147.378C103.822 147.18 103.782 146.966 103.789 146.751C103.789 146.004 104.292 145.745 104.3 145.793C104.163 146.091 104.091 146.415 104.089 146.743C104.1 146.907 104.144 147.068 104.217 147.216C104.291 147.364 104.394 147.495 104.519 147.603C104.679 147.713 104.864 147.781 105.058 147.801C105.251 147.821 105.447 147.793 105.626 147.717C105.805 147.642 105.963 147.523 106.084 147.371C106.205 147.22 106.287 147.04 106.32 146.848C106.332 146.684 106.311 146.519 106.258 146.362C106.205 146.206 106.122 146.062 106.012 145.939C105.614 145.477 105.168 145.493 105.176 145.428Z" fill="#455A64"/>
<path d="M104.405 152.017C104.405 151.968 104.909 152.017 105.217 152.69C105.295 152.882 105.331 153.089 105.321 153.297C105.311 153.504 105.256 153.707 105.16 153.891C105.021 154.11 104.824 154.286 104.592 154.402C104.359 154.517 104.1 154.567 103.841 154.546C103.583 154.525 103.335 154.434 103.124 154.283C102.913 154.132 102.747 153.926 102.645 153.688C102.58 153.493 102.559 153.285 102.582 153.08C102.606 152.876 102.675 152.679 102.783 152.503C103.164 151.895 103.683 151.911 103.667 151.96C103.651 152.008 103.278 152.122 103.042 152.641C102.923 152.933 102.923 153.259 103.042 153.55C103.127 153.711 103.251 153.848 103.403 153.948C103.555 154.049 103.73 154.109 103.911 154.123C104.092 154.138 104.274 154.106 104.44 154.032C104.606 153.957 104.75 153.842 104.86 153.696C105.013 153.419 105.051 153.092 104.965 152.787C104.73 152.236 104.365 152.073 104.405 152.017Z" fill="#455A64"/>
<path d="M87.212 145.59C87.1786 145.869 87.1076 146.142 87.001 146.402C86.7475 147.145 86.4299 147.864 86.0517 148.552C84.8137 150.847 83.0256 152.8 80.8477 154.234C78.6698 155.668 76.17 156.54 73.5724 156.771C72.7922 156.839 72.0076 156.839 71.2275 156.771C70.9526 156.763 70.6799 156.719 70.4161 156.641C70.4161 156.56 71.6413 156.698 73.5805 156.455C76.1079 156.148 78.5298 155.259 80.6557 153.859C82.7816 152.458 84.5537 150.583 85.8326 148.382C86.7819 146.743 87.1389 145.566 87.212 145.59Z" fill="#455A64"/>
<path d="M122.118 157.429C122.118 157.429 121.907 157.331 121.575 157.104C121.11 156.77 120.675 156.395 120.276 155.984C118.942 154.633 117.901 153.022 117.218 151.25C116.535 149.478 116.226 147.585 116.309 145.688C116.327 145.117 116.401 144.549 116.528 143.992C116.617 143.594 116.674 143.383 116.706 143.391C116.739 143.4 116.609 144.276 116.609 145.696C116.61 149.423 117.995 153.017 120.495 155.781C121.445 156.828 122.159 157.364 122.118 157.429Z" fill="#455A64"/>
<path d="M185.058 157.899C185.326 157.25 185.253 157.51 180.953 154.654C180.953 154.654 187.119 158.711 186.478 156.779C185.924 156.048 185.245 155.419 184.474 154.921C186.097 155.879 187.038 155.984 187.322 155.595C187.809 154.921 184.279 152.349 182.6 151.189C184.135 152.287 185.746 153.277 187.419 154.151C188.417 154.459 187.939 153.29 187.265 152.439C186.592 151.587 181.366 146.556 179.963 145.055C179.829 144.941 179.722 144.799 179.648 144.639C179.575 144.479 179.537 144.306 179.537 144.13C179.537 143.954 179.575 143.78 179.648 143.621C179.722 143.461 179.829 143.319 179.963 143.205C182.478 141.582 183.581 138.994 183.549 138.142C183.521 137.95 183.433 137.772 183.298 137.633C183.162 137.495 182.986 137.402 182.795 137.37C182.604 137.338 182.408 137.366 182.234 137.453C182.06 137.539 181.918 137.678 181.829 137.85C181.194 138.639 180.454 139.338 179.63 139.927C178.991 140.425 178.272 140.812 177.504 141.071C176.612 141.363 172.222 141.12 171.281 140.641L168.287 150.791C168.287 150.791 179.151 155.871 181.212 156.861C183.744 158.061 184.872 158.394 185.058 157.899Z" fill="#FFBE9D"/>
<path d="M178.997 153.153C178.908 153.274 180.32 154.305 182.145 155.465C183.971 156.625 185.504 157.461 185.577 157.339C185.65 157.218 184.239 156.179 182.421 155.027C180.604 153.875 179.078 152.998 178.997 153.153Z" fill="#EB996E"/>
<path d="M180.019 151.165C179.938 151.286 181.383 152.471 183.265 153.818C185.147 155.165 186.705 156.163 186.786 156.049C186.868 155.936 185.431 154.743 183.541 153.396C181.65 152.049 180.109 151.051 180.019 151.165Z" fill="#EB996E"/>
<path d="M181.099 149.152C181.017 149.266 182.364 150.418 184.109 151.716C185.853 153.015 187.354 153.972 187.419 153.858C187.484 153.745 186.162 152.593 184.417 151.294C182.673 149.996 181.188 149.039 181.099 149.152Z" fill="#EB996E"/>
<path d="M70.5946 112.388L78.5625 112.826C79.1269 115.051 79.8816 117.223 80.8182 119.318C87.2363 108.185 92.1777 93.2638 93.4435 87.2677C93.265 86.678 93.0459 86.0127 92.7863 85.2716C92.5919 84.1514 92.625 83.0034 92.8836 81.8962C93.1027 80.5656 93.476 78.7643 93.5814 77.9367C93.9303 75.4051 94.336 74.9994 95.2042 75.2915C96.4051 75.681 94.7093 82.4074 95.6911 82.5535C96.2266 82.6265 96.8676 80.3222 97.0623 78.4316C97.2571 76.5411 98.1009 70.7315 98.7257 70.3177C99.6426 69.7497 100.438 70.6504 100.211 72.5328C99.9833 74.4152 99.6831 80.1193 100.681 80.1923C101.679 80.2654 102.491 70.626 102.491 70.626C102.491 70.626 102.336 68.5327 103.489 68.5813C105.574 68.6706 103.951 78.8373 103.773 79.8029C103.643 80.4682 104.73 80.6143 104.827 79.8678C104.925 79.1213 105.428 70.2203 107.546 70.2934C109.168 70.3502 106.288 78.6669 107.205 80.598C108.122 82.5291 108.755 74.0501 110.312 74.1637C110.889 74.2124 111.319 74.326 110.256 79.1213C109.218 82.9344 107.975 86.6886 106.531 90.3672C104.097 103.674 93.2325 146.239 76.2581 138.45C66.7648 134.093 62.3265 112.486 62.3265 112.486L70.5946 112.388Z" fill="#FFBE9D"/>
<path d="M106.548 90.4402C106.562 90.3396 106.589 90.2414 106.629 90.1481C106.702 89.9371 106.791 89.6612 106.913 89.3367C107.18 88.5659 107.546 87.4948 108.024 86.0911C108.503 84.6874 109.079 82.9835 109.647 80.9712C109.939 79.9732 110.183 78.886 110.402 77.7257C110.515 77.1415 110.621 76.5411 110.694 75.9244C110.714 75.6191 110.714 75.3128 110.694 75.0075C110.694 74.6911 110.621 74.4315 110.369 74.4233C110.118 74.4152 109.939 74.5694 109.761 74.8371C109.599 75.1237 109.466 75.4253 109.363 75.7378C109.136 76.3788 108.957 77.0604 108.779 77.75C108.6 78.4397 108.438 79.1619 108.227 79.8921C108.135 80.2921 107.97 80.6717 107.74 81.0118C107.683 81.0784 107.606 81.1264 107.521 81.1498C107.468 81.1615 107.412 81.1611 107.359 81.1484C107.305 81.1358 107.256 81.1113 107.213 81.0767C107.12 80.9912 107.043 80.8895 106.986 80.7765C106.9 80.5773 106.843 80.3669 106.815 80.1517C106.778 78.5152 106.942 76.8802 107.302 75.2834C107.44 74.472 107.586 73.6606 107.692 72.8492C107.74 72.4354 107.789 72.0379 107.797 71.5997C107.805 71.1616 107.74 70.6991 107.57 70.626C107.4 70.553 106.986 70.7802 106.759 71.121C106.534 71.4809 106.357 71.8682 106.231 72.2732C105.954 73.1207 105.746 73.9889 105.606 74.8696C105.452 75.7621 105.33 76.6709 105.225 77.5959C105.184 78.0584 105.136 78.5209 105.095 78.9915L105.03 79.6974C105.039 79.8481 105.014 79.999 104.958 80.1392C104.902 80.2794 104.816 80.4056 104.706 80.5088C104.567 80.6103 104.399 80.665 104.227 80.665C104.055 80.665 103.887 80.6103 103.748 80.5088C103.67 80.4568 103.603 80.3887 103.552 80.3089C103.502 80.2292 103.469 80.1397 103.456 80.0463C103.444 79.9602 103.444 79.8727 103.456 79.7866V79.6162L103.675 78.1963C103.813 77.2389 103.927 76.2814 104.016 75.3078C104.105 74.3341 104.178 73.3523 104.195 72.3705C104.242 71.3985 104.144 70.4248 103.902 69.482C103.846 69.2427 103.701 69.0338 103.497 68.8978C103.399 68.8663 103.294 68.8667 103.196 68.8987C103.098 68.9308 103.013 68.9929 102.953 69.0763C102.69 69.5566 102.583 70.1064 102.645 70.6504C102.466 72.5571 102.263 74.4315 101.988 76.2733C101.85 77.1902 101.695 78.107 101.468 79.0077C101.403 79.2268 101.338 79.454 101.257 79.6811C101.18 79.9565 101.018 80.2006 100.795 80.3789C100.696 80.4275 100.584 80.4411 100.476 80.4175C100.368 80.3939 100.272 80.3346 100.202 80.2491C100.103 80.1451 100.029 80.0204 99.9834 79.884C99.8958 79.6589 99.8333 79.4249 99.7967 79.1862C99.6066 77.4205 99.5903 75.6404 99.7481 73.8716C99.868 73.047 99.9141 72.2134 99.886 71.3806C99.8597 71.0252 99.6969 70.6937 99.4316 70.4556C99.3693 70.4169 99.2998 70.3912 99.2273 70.38C99.1548 70.3689 99.0808 70.3725 99.0097 70.3907C98.9338 70.4163 98.8605 70.4489 98.7906 70.4881C98.7176 70.553 98.7257 70.4881 98.677 70.626C98.3836 71.3557 98.1687 72.1146 98.036 72.8898C97.8737 73.7012 97.7358 74.4396 97.6141 75.2023C97.4924 75.965 97.3788 76.7115 97.2814 77.4579C97.1841 78.2044 97.1354 78.9347 96.9893 79.6649C96.8632 80.3783 96.6731 81.079 96.4213 81.7583C96.3545 81.9312 96.2759 82.0993 96.186 82.2614C96.0724 82.4155 96.0075 82.6103 95.6992 82.7076C95.6203 82.7221 95.5389 82.7129 95.4652 82.6811C95.3916 82.6493 95.329 82.5965 95.2854 82.5291C95.2286 82.4354 95.1849 82.3344 95.1556 82.2289C95.1191 82.0525 95.0974 81.8734 95.0906 81.6934C95.0906 80.3059 95.2773 79.0401 95.3503 77.8149C95.4032 77.2292 95.4032 76.6399 95.3503 76.0542C95.3503 75.7946 95.2286 75.4863 95.0825 75.4295C94.9803 75.3793 94.8678 75.3532 94.7539 75.3532C94.64 75.3532 94.5276 75.3793 94.4253 75.4295C94.0847 75.7952 93.8738 76.2628 93.8249 76.7601C93.7032 77.2551 93.6545 77.7581 93.5652 78.2369C93.2244 80.1517 92.8674 81.807 92.697 83.1539C92.617 83.7462 92.617 84.3466 92.697 84.9389C92.8106 85.4258 92.981 85.8639 93.0703 86.2047C93.1595 86.5455 93.2488 86.7889 93.3056 87.0161C93.3358 87.1031 93.3575 87.1927 93.3705 87.2839C93.3219 87.2053 93.2837 87.1208 93.2569 87.0323L92.981 86.2209C92.8674 85.872 92.697 85.4826 92.5591 84.9471C92.4723 84.3389 92.4723 83.7215 92.5591 83.1133C92.7133 81.7421 93.0378 80.1031 93.3705 78.1801C93.4597 77.7014 93.5084 77.1983 93.6139 76.679C93.672 76.4047 93.7452 76.1339 93.833 75.8676C93.9141 75.5725 94.0911 75.3127 94.3361 75.1292C94.4835 75.0511 94.6479 75.0102 94.8148 75.0102C94.9817 75.0102 95.146 75.0511 95.2935 75.1292C95.4521 75.2292 95.5825 75.3683 95.672 75.5331C95.7615 75.6979 95.8072 75.8829 95.8047 76.0705C95.8615 76.6804 95.8615 77.2943 95.8047 77.9042C95.7479 79.1375 95.5531 80.4276 95.5856 81.7421C95.5915 81.8976 95.6105 82.0523 95.6424 82.2046C95.6424 82.3587 95.756 82.4236 95.7398 82.3912C95.7235 82.3587 95.8939 82.2614 95.9588 82.1315C96.0389 81.9876 96.1093 81.8385 96.1698 81.6853C96.4101 81.0276 96.5868 80.3483 96.6972 79.6568C96.8352 78.9509 96.8838 78.2206 96.9812 77.4661C97.0786 76.7115 97.1759 75.965 97.2976 75.1942C97.4194 74.4233 97.5573 73.6525 97.7115 72.8655C97.8434 72.0435 98.0722 71.24 98.393 70.4719C98.4579 70.343 98.5559 70.2338 98.677 70.1554C98.7848 70.0963 98.8992 70.05 99.0178 70.0175C99.1539 69.9786 99.2967 69.9693 99.4367 69.9903C99.5767 70.0113 99.7105 70.0621 99.8292 70.1392C100.017 70.2887 100.173 70.4753 100.286 70.6875C100.399 70.8997 100.467 71.1329 100.486 71.3725C100.547 71.814 100.547 72.2617 100.486 72.7032C100.446 73.117 100.405 73.5146 100.381 73.969C100.223 75.6972 100.239 77.4369 100.43 79.1619C100.464 79.3667 100.519 79.5678 100.592 79.7623C100.616 79.8408 100.658 79.9129 100.714 79.9732C100.714 79.9732 100.714 79.9732 100.754 79.9732C100.754 80.1599 100.754 79.9732 100.754 80.0463C100.754 80.1193 100.754 80.0463 100.754 79.9814C100.855 79.8458 100.935 79.6952 100.989 79.5351C101.065 79.335 101.13 79.124 101.184 78.9022C101.403 78.0421 101.549 77.1334 101.687 76.2246C101.963 74.399 102.166 72.5247 102.336 70.626V70.6666C102.264 69.9978 102.409 69.3235 102.75 68.7436C102.88 68.5779 103.059 68.4568 103.261 68.3971C103.463 68.3375 103.679 68.3423 103.878 68.4109C104.048 68.5054 104.198 68.633 104.318 68.7864C104.437 68.9397 104.525 69.1155 104.576 69.3035C104.836 70.3012 104.942 71.3326 104.892 72.3624C104.892 73.3685 104.803 74.3584 104.714 75.3402C104.625 76.322 104.503 77.2875 104.365 78.245C104.292 78.7318 104.219 79.2024 104.146 79.6811C104.081 79.9814 104.097 79.9895 104.146 80.0787C104.202 80.1167 104.269 80.1371 104.337 80.1371C104.404 80.1371 104.471 80.1167 104.527 80.0787C104.625 80.0057 104.641 79.8678 104.665 79.6L104.722 78.8941L104.868 77.4904C104.965 76.5654 105.095 75.6404 105.249 74.7398C105.399 73.8351 105.616 72.9429 105.898 72.0703C106.046 71.6293 106.245 71.2071 106.491 70.8127C106.625 70.6 106.802 70.4176 107.01 70.2771C107.126 70.1934 107.26 70.1387 107.401 70.1175C107.542 70.0963 107.686 70.1093 107.821 70.1554C107.946 70.2321 108.051 70.3364 108.128 70.4603C108.205 70.5841 108.253 70.7241 108.268 70.8694C108.301 71.0977 108.315 71.3285 108.308 71.5591C108.308 72.0054 108.251 72.4354 108.203 72.8655C108.089 73.6769 107.935 74.5369 107.789 75.3564C107.44 76.8977 107.272 78.4742 107.286 80.0544C107.309 80.2241 107.352 80.3903 107.416 80.5493C107.445 80.6069 107.481 80.6613 107.521 80.7116C107.521 80.7116 107.521 80.7116 107.521 80.6548C107.703 80.3615 107.838 80.0411 107.919 79.7055C108.13 78.9996 108.3 78.2855 108.487 77.5878C108.654 76.8935 108.857 76.2083 109.095 75.5349C109.208 75.2014 109.355 74.8806 109.533 74.5775C109.63 74.4123 109.757 74.2665 109.907 74.1475C109.988 74.0767 110.086 74.0266 110.191 74.0014C110.296 73.985 110.402 73.985 110.507 74.0014C110.618 74.0125 110.724 74.0529 110.814 74.1185C110.903 74.1841 110.974 74.2726 111.018 74.3747C111.086 74.5452 111.122 74.7267 111.124 74.9102C111.13 75.2384 111.111 75.5666 111.067 75.892C110.994 76.5248 110.872 77.1253 110.759 77.7176C110.523 78.8779 110.264 79.9814 109.947 80.9631C109.339 82.9754 108.73 84.6793 108.235 86.0668C107.74 87.4543 107.318 88.501 107.034 89.2474C106.896 89.5882 106.783 89.856 106.702 90.0588C106.665 90.1915 106.614 90.3195 106.548 90.4402Z" fill="#EB996E"/>
<path d="M62.2535 113.305C63.7951 118.75 66.8135 127.147 70.051 136.024C70.153 136.31 70.3377 136.559 70.5815 136.74C70.8254 136.921 71.1174 137.026 71.4207 137.04C71.724 137.055 72.0249 136.98 72.2851 136.823C72.5454 136.667 72.7534 136.437 72.8828 136.162L80.8182 119.374C80.8182 119.374 78.9033 105.581 79.0656 106.076C79.2279 106.571 62.6916 107.861 62.6916 107.861L62.2535 113.305Z" fill="#B1BFA9"/>
<path d="M80.1366 110.603C80.1366 110.668 79.1467 110.96 77.5807 111.561C75.5341 112.338 73.5624 113.299 71.69 114.433C69.8201 115.572 68.0551 116.876 66.4159 118.328C65.1583 119.439 64.4361 120.202 64.3874 120.153C64.3388 120.105 64.5254 119.926 64.8337 119.561C65.2684 119.054 65.7288 118.569 66.2131 118.109C67.8125 116.569 69.5756 115.208 71.4709 114.052C73.3669 112.909 75.3798 111.974 77.4753 111.26C78.1087 111.042 78.7533 110.858 79.4064 110.709C79.6426 110.635 79.8892 110.599 80.1366 110.603Z" fill="#FAFAFA"/>
<path d="M83.2848 114.79C82.7692 114.27 82.3221 113.687 81.9542 113.054C81.0066 111.576 80.192 110.018 79.52 108.396C78.8475 106.77 78.3234 105.086 77.954 103.366C77.7649 102.662 77.6694 101.936 77.67 101.207C77.912 101.888 78.1045 102.585 78.2461 103.293C78.6808 104.973 79.2228 106.623 79.8689 108.234C80.5439 109.836 81.3189 111.394 82.1895 112.899C82.5947 113.506 82.9605 114.137 83.2848 114.79Z" fill="#263238"/>
<path d="M88.5751 40.4505C87.1986 42.7193 86.3452 45.2665 86.0771 47.9066C85.809 50.5468 86.133 53.2135 87.0254 55.7127C87.8368 57.944 89.135 60.1429 88.8997 62.5122C88.6644 64.8814 86.8144 67.2263 87.4635 69.5632C87.853 70.9506 89.0376 71.9973 89.5001 73.3442C90.0275 74.967 89.5001 76.679 89.2161 78.3424C88.567 82.5941 89.9302 86.8701 90.2628 91.1542C90.5955 95.4384 89.4514 100.461 85.6217 102.327C84.4614 102.895 82.9441 103.057 81.9785 102.189C80.7452 101.094 81.086 99.114 81.4267 97.4912C84.7859 81.2634 74.4082 65.4251 76.7774 49.0025C77.1588 46.3736 78.6274 41.911 80.518 40.0772C82.4085 38.2435 87.6583 38.4545 89.4433 40.4018" fill="#263238"/>
<path d="M72.5906 87.5273C72.5906 87.5273 73.0856 86.9431 73.8158 85.7909C74.8406 84.1637 75.5584 82.3624 75.9336 80.4763C76.1784 79.1771 76.2629 77.8528 76.1851 76.533C76.0432 74.9984 75.9863 73.4571 76.0147 71.9162C76.0631 71.0723 76.2185 70.238 76.4772 69.4333C76.7738 68.6044 77.1487 67.8056 77.5969 67.0478C78.5057 65.5143 79.6498 64.0863 80.7046 62.5608C81.7878 61.1192 82.5412 59.4573 82.9116 57.6925C83.0915 56.0302 82.9955 54.3497 82.6276 52.7187C82.3206 51.2028 82.2007 49.655 82.2706 48.11C82.3671 46.7604 82.6399 45.4292 83.082 44.1504C83.7018 42.2948 84.6774 40.5777 85.9543 39.0954C86.2935 38.6925 86.6623 38.3155 87.0578 37.9676C87.1832 37.834 87.325 37.7168 87.4798 37.6187C87.4798 37.6187 86.9361 38.1461 86.076 39.2415C84.0275 41.7842 82.8297 44.9064 82.6519 48.1668C82.5976 49.6866 82.7312 51.2073 83.0495 52.6943C83.4366 54.3692 83.5408 56.0969 83.3579 57.8061C82.9732 59.6201 82.1979 61.3285 81.086 62.8124C80.023 64.3621 78.879 65.7821 77.9864 67.275C77.5474 68.0046 77.1831 68.7766 76.8991 69.5794C76.6425 70.3512 76.487 71.153 76.4367 71.9649C76.4008 73.4888 76.4441 75.0136 76.5665 76.533C76.6309 77.8794 76.5273 79.2286 76.2581 80.5494C75.8516 82.4612 75.0802 84.2767 73.9862 85.8964C73.6901 86.3343 73.3648 86.7517 73.0126 87.146C72.8863 87.2881 72.7448 87.416 72.5906 87.5273Z" fill="#455A64"/>
<path d="M64.8986 88.7363C64.964 88.5471 65.0482 88.3649 65.1502 88.1926C65.353 87.8113 65.6126 87.3082 65.9615 86.6753C66.6431 85.3528 67.6574 83.4298 68.6554 80.9956C69.8762 78.1526 70.5532 75.106 70.6514 72.0135C70.6519 71.1225 70.584 70.2328 70.4486 69.3522C70.3106 68.4434 70.0997 67.5265 69.9617 66.5691C69.793 65.5787 69.815 64.5653 70.0266 63.5832C70.301 62.5749 70.8653 61.6693 71.6494 60.9786C73.1749 59.5911 75.0167 58.6824 75.9742 57.0515C76.8037 55.4343 77.2925 53.6641 77.4103 51.8505C77.5821 50.1878 77.9581 48.5527 78.5301 46.9821C79.8162 43.6104 82.1078 40.7155 85.0943 38.6897C85.5704 38.3693 86.0663 38.0793 86.5791 37.8215C86.7522 37.7178 86.9376 37.6361 87.1309 37.5781C87.1309 37.5781 86.4006 37.9676 85.1916 38.8277C83.4876 40.0436 82.0125 41.5518 80.8344 43.2822C80.0175 44.4684 79.3523 45.7523 78.8546 47.1038C78.3079 48.6781 77.9537 50.3128 77.7998 51.9722C77.5564 53.7004 77.3617 55.6316 76.3231 57.3436C75.2845 59.0556 73.3858 60.0293 71.9334 61.4005C71.1932 62.0428 70.6597 62.8898 70.3999 63.8347C70.2026 64.7639 70.1834 65.722 70.3431 66.6583C70.4729 67.5914 70.6758 68.5164 70.8137 69.4333C70.9541 70.3351 71.0192 71.247 71.0084 72.1596C70.8982 75.3087 70.1848 78.4074 68.9069 81.2877C68.0769 83.2342 67.1341 85.1307 66.0833 86.9674L65.2232 88.2413C65.1328 88.4173 65.024 88.5832 64.8986 88.7363Z" fill="#455A64"/>
<path d="M333.357 318.011C333.394 317.893 333.443 317.778 333.503 317.67C333.616 317.426 333.771 317.102 333.957 316.688C334.522 315.421 334.975 314.107 335.312 312.761C336.205 309.272 336.521 303.941 335.199 297.612C334.48 294.161 333.54 290.759 332.383 287.429C331.198 283.819 329.811 279.989 328.683 275.843C327.41 271.518 326.794 267.027 326.857 262.52C327.028 257.805 328.423 253.108 329.957 248.418C331.491 243.728 333.073 239.16 333.543 234.535C334.067 230.1 333.175 225.613 330.996 221.715C328.967 217.974 326.411 214.769 324.504 211.459C322.719 208.383 321.404 205.057 320.602 201.592C319.45 196.576 319.365 191.374 320.35 186.322C320.709 184.474 321.253 182.666 321.973 180.926C321.951 181.048 321.918 181.167 321.875 181.283L321.551 182.314C321.275 183.222 320.91 184.586 320.561 186.371C319.654 191.4 319.789 196.561 320.959 201.536C321.772 204.958 323.093 208.24 324.878 211.272C326.784 214.518 329.348 217.763 331.426 221.52C333.658 225.497 334.575 230.078 334.046 234.608C333.568 239.298 331.977 243.914 330.444 248.596C328.91 253.278 327.531 257.927 327.361 262.56C327.288 267.023 327.89 271.471 329.146 275.753C330.257 279.875 331.62 283.705 332.797 287.332C333.943 290.68 334.864 294.101 335.556 297.572C336.846 303.949 336.481 309.337 335.556 312.834C335.194 314.182 334.707 315.494 334.103 316.753L333.6 317.719C333.53 317.825 333.449 317.923 333.357 318.011Z" fill="#263238"/>
<path d="M327.101 214.729C327.101 214.729 323.222 202.306 330.184 195.036C330.238 194.978 330.307 194.935 330.384 194.914C330.461 194.892 330.542 194.893 330.618 194.915C330.695 194.936 330.764 194.979 330.817 195.038C330.871 195.097 330.908 195.169 330.923 195.247C331.296 197.3 331.758 203.548 327.101 214.729Z" fill="#B1BFA9"/>
<path d="M329.43 199.174C329.417 199.944 329.33 200.71 329.17 201.463C328.91 203.045 328.61 204.895 328.285 206.939C327.961 208.984 327.661 210.842 327.409 212.416C327.338 213.184 327.203 213.944 327.003 214.688C326.927 213.921 326.944 213.147 327.052 212.384C327.182 210.964 327.433 209.017 327.782 206.875C328.131 204.732 328.513 202.818 328.813 201.414C328.931 200.646 329.138 199.895 329.43 199.174Z" fill="#263238"/>
<path d="M331.661 244.028C331.661 244.028 334.038 231.232 343.597 228.068C343.672 228.042 343.753 228.037 343.831 228.054C343.909 228.071 343.98 228.11 344.038 228.166C344.095 228.221 344.136 228.292 344.155 228.369C344.175 228.446 344.172 228.527 344.148 228.604C343.515 230.575 341.008 236.312 331.661 244.028Z" fill="#B1BFA9"/>
<path d="M340.992 231.354C340.621 232.03 340.187 232.668 339.694 233.261L336.343 237.683L333.016 242.121C332.597 242.765 332.122 243.371 331.596 243.931C331.892 243.217 332.274 242.541 332.732 241.918C333.543 240.726 334.647 239.119 335.978 237.391C337.308 235.663 338.517 234.145 339.434 233.042C339.89 232.424 340.412 231.858 340.992 231.354Z" fill="#263238"/>
<path d="M329.081 276.102C329.081 276.102 327.636 263.169 335.864 257.367C335.927 257.318 336.004 257.287 336.084 257.28C336.164 257.272 336.245 257.287 336.316 257.324C336.388 257.361 336.447 257.417 336.488 257.487C336.529 257.556 336.549 257.636 336.546 257.716C336.521 259.802 335.783 266.017 329.081 276.102Z" fill="#B1BFA9"/>
<path d="M334.355 261.278C334.204 262.034 333.973 262.771 333.665 263.477L331.75 268.686C331.036 270.634 330.395 272.394 329.851 273.895C329.643 274.634 329.372 275.353 329.04 276.045C329.115 275.276 329.284 274.518 329.543 273.79C329.941 272.427 330.557 270.544 331.312 268.516C332.067 266.487 332.805 264.662 333.365 263.355C333.623 262.631 333.955 261.935 334.355 261.278Z" fill="#263238"/>
<path d="M336.278 308.379C336.278 308.379 335.304 295.397 343.726 289.896C343.792 289.851 343.87 289.825 343.949 289.821C344.029 289.817 344.109 289.835 344.179 289.874C344.249 289.913 344.306 289.97 344.345 290.04C344.385 290.11 344.403 290.189 344.4 290.269C344.302 292.354 343.345 298.545 336.278 308.379Z" fill="#B1BFA9"/>
<path d="M342.055 293.758C341.873 294.508 341.615 295.236 341.284 295.933C340.684 297.409 339.97 299.178 339.183 301.069C338.395 302.959 337.706 304.72 337.105 306.205C336.865 306.937 336.558 307.646 336.188 308.323C336.296 307.555 336.495 306.803 336.781 306.083C337.227 304.736 337.909 302.886 338.736 300.882C339.564 298.878 340.359 297.077 340.968 295.795C341.256 295.079 341.621 294.396 342.055 293.758Z" fill="#263238"/>
<path d="M321.518 203.816C321.518 203.816 310.013 197.779 309.761 187.726C309.76 187.647 309.781 187.569 309.821 187.501C309.86 187.433 309.918 187.377 309.987 187.339C310.056 187.301 310.134 187.282 310.213 187.284C310.291 187.287 310.368 187.31 310.435 187.352C312.147 188.537 316.901 192.627 321.518 203.816Z" fill="#B1BFA9"/>
<path d="M312.155 191.182C312.695 191.734 313.176 192.34 313.591 192.992C314.532 194.282 315.628 195.807 316.837 197.487L320.082 201.966C320.577 202.555 321.017 203.188 321.397 203.856C320.803 203.362 320.272 202.798 319.815 202.177C318.898 201.089 317.697 199.531 316.431 197.771C315.165 196.01 314.054 194.379 313.291 193.186C312.844 192.56 312.463 191.888 312.155 191.182Z" fill="#263238"/>
<path d="M333.908 230.486C333.908 230.486 322.03 225.171 321.194 215.134C321.187 215.056 321.202 214.976 321.238 214.906C321.273 214.835 321.327 214.775 321.394 214.733C321.462 214.691 321.539 214.669 321.618 214.668C321.697 214.667 321.775 214.688 321.843 214.729C323.62 215.808 328.61 219.589 333.908 230.486Z" fill="#B1BFA9"/>
<path d="M323.807 218.445C324.379 218.96 324.896 219.534 325.348 220.157L328.87 224.449L332.399 228.725C332.928 229.285 333.406 229.89 333.827 230.535C333.205 230.075 332.638 229.544 332.14 228.952C331.166 227.914 329.868 226.437 328.496 224.758C327.125 223.078 325.924 221.512 325.08 220.368C324.586 219.776 324.159 219.131 323.807 218.445Z" fill="#263238"/>
<path d="M327.052 260.256C327.052 260.256 318.938 250.113 322.727 240.782C322.757 240.709 322.807 240.646 322.871 240.599C322.935 240.552 323.01 240.524 323.089 240.517C323.168 240.51 323.247 240.525 323.318 240.561C323.389 240.596 323.448 240.65 323.49 240.718C324.618 242.478 327.32 248.126 327.052 260.256Z" fill="#B1BFA9"/>
<path d="M323.547 244.904C323.824 245.625 324.026 246.373 324.147 247.136C324.488 248.694 324.886 250.527 325.324 252.556C325.762 254.584 326.176 256.41 326.517 257.968C326.734 258.707 326.883 259.465 326.963 260.232C326.607 259.542 326.334 258.812 326.152 258.057C325.754 256.686 325.267 254.811 324.813 252.653C324.358 250.495 324.001 248.596 323.774 247.201C323.615 246.446 323.538 245.676 323.547 244.904Z" fill="#263238"/>
<path d="M335.166 295.235C335.166 295.235 323.377 289.726 322.711 279.681C322.703 279.6 322.718 279.52 322.754 279.448C322.79 279.376 322.845 279.315 322.913 279.273C322.982 279.231 323.061 279.208 323.141 279.209C323.222 279.209 323.3 279.232 323.368 279.275C325.113 280.386 330.038 284.257 335.166 295.235Z" fill="#B1BFA9"/>
<path d="M325.243 283.023C325.8 283.556 326.306 284.14 326.752 284.768L330.2 289.109L333.657 293.45C334.177 294.018 334.644 294.631 335.053 295.284C334.448 294.81 333.904 294.265 333.43 293.661C332.464 292.606 331.198 291.105 329.851 289.401C328.505 287.697 327.336 286.115 326.509 284.955C326.013 284.362 325.588 283.714 325.243 283.023Z" fill="#263238"/>
<path d="M358.624 244.085C358.624 244.085 358.624 244.182 358.624 244.369C358.624 244.555 358.624 244.864 358.624 245.18C358.624 245.992 358.542 247.022 358.486 248.337C358.34 251.111 358.12 254.982 357.869 259.607C357.058 264.313 354.623 269.53 351.378 274.601C349.017 278.334 346.509 281.725 344.4 284.882C342.474 287.652 340.745 290.553 339.223 293.563C338.216 295.598 337.401 297.722 336.789 299.908C336.586 300.679 336.424 301.288 336.335 301.702C336.296 301.917 336.239 302.129 336.164 302.335C336.167 302.116 336.194 301.898 336.245 301.685C336.302 301.263 336.424 300.647 336.61 299.86C337.156 297.636 337.931 295.474 338.923 293.409C340.431 290.375 342.158 287.454 344.091 284.671C346.217 281.49 348.676 278.09 351.029 274.382C354.234 269.335 356.619 264.199 357.52 259.566C357.845 254.949 358.112 251.087 358.331 248.312C358.437 246.998 358.526 245.951 358.591 245.164C358.591 244.839 358.648 244.564 358.672 244.353C358.645 244.266 358.628 244.176 358.624 244.085Z" fill="#263238"/>
<path d="M351.605 273.668C351.605 273.668 356.595 261.66 350.323 253.781C350.274 253.718 350.209 253.669 350.135 253.641C350.06 253.613 349.979 253.606 349.901 253.621C349.823 253.636 349.75 253.673 349.691 253.727C349.633 253.781 349.59 253.85 349.569 253.927C349.009 255.939 347.978 262.114 351.605 273.668Z" fill="#B1BFA9"/>
<path d="M350.696 257.976C350.911 258.716 351.045 259.478 351.094 260.248C351.272 261.66 351.467 263.615 351.621 265.781C351.775 267.948 351.848 269.911 351.848 271.339C351.897 272.11 351.851 272.884 351.711 273.644C351.57 272.887 351.503 272.118 351.508 271.348C351.402 269.725 351.272 267.883 351.134 265.814C350.997 263.745 350.867 261.871 350.753 260.28C350.659 259.516 350.64 258.744 350.696 257.976Z" fill="#263238"/>
<g opacity="0.3">
<path d="M351.605 273.668C351.605 273.668 356.595 261.66 350.323 253.781C350.274 253.718 350.209 253.669 350.135 253.641C350.06 253.613 349.979 253.606 349.901 253.621C349.823 253.636 349.75 253.673 349.691 253.727C349.633 253.781 349.59 253.85 349.569 253.927C349.009 255.939 347.978 262.114 351.605 273.668Z" fill="black"/>
</g>
<path d="M336.148 302.627C336.148 302.627 340.148 290.245 333.251 282.91C333.198 282.851 333.129 282.809 333.053 282.787C332.977 282.765 332.896 282.764 332.82 282.785C332.744 282.806 332.675 282.848 332.62 282.906C332.566 282.964 332.529 283.035 332.513 283.113C332.123 285.157 331.596 291.405 336.148 302.627Z" fill="#B1BFA9"/>
<path d="M333.965 287.032C334.246 287.753 334.442 288.505 334.549 289.271C334.842 290.659 335.19 292.598 335.523 294.74C335.856 296.882 336.083 298.837 336.205 300.257C336.31 301.024 336.324 301.8 336.245 302.57C336.053 301.825 335.922 301.065 335.856 300.298C335.621 298.716 335.345 296.866 335.044 294.813C334.744 292.76 334.452 290.91 334.233 289.328C334.069 288.573 333.979 287.804 333.965 287.032Z" fill="#263238"/>
<g opacity="0.3">
<path d="M336.148 302.627C336.148 302.627 340.148 290.245 333.251 282.91C333.198 282.851 333.129 282.809 333.053 282.787C332.977 282.765 332.896 282.764 332.82 282.785C332.744 282.806 332.675 282.848 332.62 282.906C332.566 282.964 332.529 283.035 332.513 283.113C332.123 285.157 331.596 291.405 336.148 302.627Z" fill="black"/>
</g>
<path d="M357.966 258.99C357.966 258.99 368.62 251.525 367.549 241.513C367.541 241.434 367.511 241.359 367.463 241.296C367.415 241.233 367.35 241.185 367.276 241.157C367.202 241.128 367.122 241.12 367.044 241.135C366.966 241.149 366.894 241.184 366.835 241.237C365.285 242.632 361.131 247.274 357.966 258.99Z" fill="#B1BFA9"/>
<g opacity="0.3">
<path d="M357.967 258.99C357.967 258.99 368.62 251.525 367.549 241.513C367.541 241.434 367.511 241.359 367.463 241.296C367.415 241.233 367.35 241.185 367.276 241.157C367.203 241.128 367.122 241.12 367.044 241.135C366.967 241.149 366.894 241.184 366.835 241.237C365.285 242.632 361.131 247.274 357.967 258.99Z" fill="black"/>
</g>
<path d="M365.618 245.253C365.407 245.996 365.11 246.712 364.734 247.387C364.125 248.669 363.241 250.422 362.21 252.337C361.18 254.252 360.19 255.947 359.427 257.148C359.052 257.822 358.597 258.449 358.072 259.014C358.357 258.301 358.71 257.616 359.127 256.97C359.89 255.566 360.79 253.927 361.78 252.101L364.425 247.233C364.757 246.536 365.157 245.873 365.618 245.253Z" fill="#263238"/>
<path d="M340.448 290.35C340.448 290.35 353.301 288.346 356.741 278.885C356.769 278.812 356.776 278.732 356.761 278.654C356.747 278.577 356.711 278.504 356.658 278.446C356.606 278.387 356.538 278.344 356.462 278.322C356.387 278.299 356.306 278.298 356.23 278.317C354.226 278.918 348.416 281.23 340.448 290.35Z" fill="#B1BFA9"/>
<g opacity="0.3">
<path d="M340.448 290.35C340.448 290.35 353.301 288.346 356.741 278.885C356.769 278.812 356.776 278.732 356.761 278.654C356.747 278.577 356.711 278.504 356.658 278.446C356.606 278.387 356.538 278.344 356.462 278.322C356.387 278.299 356.306 278.298 356.23 278.317C354.226 278.918 348.416 281.23 340.448 290.35Z" fill="black"/>
</g>
<path d="M353.366 281.393C352.845 281.961 352.263 282.47 351.629 282.91C350.518 283.802 348.952 284.987 347.191 286.253C345.43 287.519 343.783 288.598 342.566 289.344C341.932 289.787 341.245 290.149 340.521 290.423C341.097 289.91 341.719 289.451 342.379 289.052L346.907 285.855L351.427 282.61C352.028 282.136 352.678 281.728 353.366 281.393Z" fill="#263238"/>
<path d="M328.18 314.01L324.431 339.245H347.8L344.773 314.01H328.18Z" fill="#455A64"/>
<path d="M345.714 321.824C345.714 321.962 341.495 322.068 336.294 322.068C331.093 322.068 326.866 321.962 326.866 321.824C330.002 321.584 333.149 321.502 336.294 321.581C339.436 321.503 342.58 321.584 345.714 321.824Z" fill="#263238"/>
<path d="M346.169 323.836C346.169 323.974 341.811 324.08 336.432 324.08C331.052 324.08 326.695 323.974 326.695 323.836C326.695 323.698 331.052 323.593 336.432 323.593C341.811 323.593 346.169 323.698 346.169 323.836Z" fill="#263238"/>
<path d="M255.301 69.206C255.301 69.206 255.082 69.206 254.66 69.206C254.044 69.1694 253.426 69.1694 252.81 69.206C250.427 69.3455 248.085 69.8945 245.888 70.8288C242.406 72.2884 239.376 74.6494 237.109 77.6688C235.712 79.5542 234.672 81.6801 234.042 83.9408C232.622 89.3262 233.389 95.0546 236.176 99.8766C236.936 101.212 237.863 102.444 238.935 103.544C240.016 104.709 241.276 105.695 242.667 106.465C244.095 107.268 245.711 107.675 247.349 107.642C249.037 107.621 250.657 106.967 251.885 105.808C252.478 105.186 252.944 104.453 253.254 103.651C253.565 102.849 253.714 101.994 253.694 101.134C253.682 99.3482 253.115 97.6101 252.071 96.1604C249.97 93.1988 246.562 91.2109 242.935 90.1399C239.174 89.0836 235.202 89.0277 231.413 89.9776C229.479 90.4807 227.615 91.2221 225.863 92.1846C224.095 93.1824 222.489 94.4437 221.1 95.9251C220.768 96.3064 220.386 96.6553 220.086 97.0773L219.169 98.3106C218.612 99.1796 218.113 100.085 217.676 101.021C216.808 102.92 216.215 104.934 215.916 107.001C215.327 111.13 215.888 115.341 217.538 119.171C219.116 122.914 221.863 126.046 225.368 128.097C227.068 129.068 228.965 129.642 230.918 129.776C232.833 129.883 234.737 129.426 236.395 128.462C238.041 127.552 239.341 126.127 240.095 124.405C240.807 122.708 240.856 120.806 240.233 119.074C239.592 117.403 238.543 115.92 237.182 114.757C235.862 113.617 234.34 112.733 232.695 112.153C229.487 111.141 226.054 111.082 222.812 111.982C219.779 112.804 216.994 114.356 214.698 116.502C212.608 118.505 211.015 120.97 210.049 123.699C208.359 128.435 208.437 133.621 210.268 138.304C211.697 141.8 213.995 144.872 216.946 147.229C218.805 148.72 220.875 149.926 223.088 150.808C223.851 151.092 224.443 151.302 224.849 151.416L225.449 151.611C225.449 151.611 225.238 151.57 224.833 151.457C224.233 151.296 223.643 151.104 223.064 150.881C220.821 150.038 218.724 148.85 216.849 147.359C213.848 145.004 211.504 141.916 210.041 138.393C208.177 133.666 208.082 128.425 209.773 123.634C210.741 120.863 212.351 118.361 214.471 116.332C216.799 114.142 219.626 112.555 222.707 111.707C226.016 110.783 229.523 110.84 232.801 111.869C234.494 112.459 236.061 113.365 237.418 114.538C238.832 115.739 239.92 117.276 240.582 119.009C241.249 120.818 241.22 122.811 240.501 124.6C239.7 126.389 238.343 127.872 236.63 128.827C234.911 129.829 232.938 130.308 230.951 130.206C228.95 130.067 227.008 129.473 225.271 128.47C221.685 126.39 218.87 123.205 217.246 119.39C215.561 115.49 214.982 111.2 215.575 106.992C215.885 104.884 216.491 102.83 217.376 100.891C217.822 99.9353 218.331 99.0109 218.901 98.1239L219.843 96.8663C220.143 96.4363 220.532 96.0549 220.873 95.6817C222.294 94.1722 223.936 92.8865 225.742 91.8681C227.534 90.8873 229.442 90.1349 231.421 89.6287C235.283 88.661 239.33 88.7197 243.162 89.7991C246.862 90.9026 250.327 92.9229 252.509 95.99C253.607 97.5002 254.202 99.3163 254.213 101.183C254.253 103.02 253.561 104.797 252.29 106.124C250.992 107.343 249.284 108.029 247.503 108.047C245.8 108.086 244.117 107.663 242.635 106.822C241.21 106.036 239.923 105.025 238.821 103.828C237.735 102.703 236.795 101.447 236.022 100.088C233.185 95.176 232.415 89.3391 233.88 83.8597C234.529 81.5728 235.594 79.4247 237.02 77.5228C239.328 74.4804 242.411 72.1128 245.945 70.6665C248.16 69.7502 250.52 69.2338 252.915 69.1411C253.537 69.1001 254.16 69.1001 254.781 69.1411L255.301 69.206Z" fill="#263238"/>
<path d="M282.393 150.394H168.627V238.137H282.393V150.394Z" fill="#B1BFA9"/>
<path d="M168.627 150.394L189.643 169.997H301.477L282.393 150.394H168.627Z" fill="#B1BFA9"/>
<path d="M168.627 150.394L282.426 150.191H282.515L282.58 150.248L301.469 169.648L301.664 169.851L302.013 170.208H301.51L189.675 170.119H189.626L168.627 150.394L189.724 169.867H189.634L301.469 169.786L301.323 170.143L301.12 169.94L282.239 150.54L282.385 150.605L168.627 150.394Z" fill="#263238"/>
<path d="M202.803 190.858C202.187 190.88 201.604 191.143 201.18 191.591C200.756 192.039 200.525 192.635 200.536 193.252C200.547 193.868 200.8 194.456 201.24 194.888C201.68 195.32 202.272 195.562 202.889 195.562C203.505 195.562 204.097 195.32 204.537 194.888C204.977 194.456 205.23 193.868 205.241 193.252C205.252 192.635 205.021 192.039 204.597 191.591C204.173 191.143 203.59 190.88 202.974 190.858" fill="#263238"/>
<path d="M229.685 190.858C229.071 190.881 228.491 191.144 228.069 191.591C227.648 192.037 227.418 192.631 227.43 193.246C227.441 193.86 227.694 194.445 228.132 194.875C228.57 195.305 229.16 195.546 229.774 195.546C230.388 195.546 230.978 195.305 231.416 194.875C231.855 194.445 232.107 193.86 232.119 193.246C232.13 192.631 231.901 192.037 231.479 191.591C231.057 191.144 230.477 190.881 229.863 190.858" fill="#263238"/>
<path d="M229.839 211.857C229.37 210.064 228.608 208.362 227.583 206.818C226.444 205.167 224.981 203.764 223.283 202.696C221.235 201.337 218.846 200.58 216.388 200.513C213.931 200.445 211.504 201.07 209.384 202.315C207.633 203.292 206.096 204.611 204.864 206.193C203.755 207.68 202.902 209.342 202.341 211.11C202.347 210.978 202.369 210.847 202.406 210.721C202.484 210.355 202.584 209.995 202.706 209.641C203.151 208.338 203.8 207.114 204.629 206.015C205.852 204.358 207.408 202.976 209.197 201.958C211.372 200.659 213.871 200.007 216.402 200.076C218.934 200.145 221.393 200.933 223.494 202.347C225.221 203.457 226.697 204.917 227.827 206.631C228.598 207.776 229.181 209.035 229.555 210.364C229.655 210.724 229.734 211.089 229.79 211.459C229.818 211.59 229.835 211.723 229.839 211.857Z" fill="#263238"/>
<path opacity="0.5" d="M168.887 151.359L189.01 176.869H282.393V169.997H189.643L168.887 151.359Z" fill="black"/>
<path d="M259.958 237.943C259.845 237.943 259.747 222.68 259.747 203.864C259.747 185.048 259.845 169.786 259.958 169.786C260.072 169.786 260.177 185.04 260.177 203.864C260.177 222.689 260.08 237.943 259.958 237.943Z" fill="#263238"/>
<path d="M277.825 218.047H267.796V229.383H277.825V218.047Z" fill="#F5F5F5"/>
<path d="M168.628 150.394L145.276 169.997H168.628V150.394Z" fill="#B1BFA9"/>
<g opacity="0.4">
<path d="M168.628 150.394L145.276 169.997H168.628V150.394Z" fill="black"/>
</g>
<path d="M285.752 238.137H154.947V339.026H285.752V238.137Z" fill="#B1BFA9"/>
<path opacity="0.3" d="M285.752 238.137H154.947V339.026H285.752V238.137Z" fill="black"/>
<path d="M252.98 338.312C252.867 338.312 252.769 315.828 252.769 288.095C252.769 260.361 252.867 237.87 252.98 237.87C253.094 237.87 253.191 260.353 253.191 288.095C253.191 315.836 253.094 338.312 252.98 338.312Z" fill="#263238"/>
<path d="M274.661 316.063H264.632V327.398H274.661V316.063Z" fill="#F5F5F5"/>
<path d="M209.708 238.405H194.852V259.931H209.708V238.405Z" fill="#263238"/>
<path d="M209.708 317.199H194.852V338.725H209.708V317.199Z" fill="#263238"/>
<path d="M284.616 238.137H284.276H283.294L279.521 238.178L265.622 238.243L219.786 238.348L173.934 238.292L160.043 238.227L156.27 238.186L160.043 238.146L173.934 238.081L219.786 238.016L265.622 238.081L279.521 238.146L283.294 238.186H284.276L284.616 238.137Z" fill="#263238"/>
<path d="M60.444 63.4695L46.1959 59.9643H46.3014C42.6225 62.3044 38.3683 63.582 34.0088 63.6561C31.4279 63.6678 28.8597 63.2932 26.3898 62.5445C22.0473 61.1502 18.1947 58.5419 15.2874 55.0278C12.3801 51.5138 10.5396 47.2409 9.98334 42.7141C9.54647 39.2906 9.86807 35.8128 10.9253 32.5274C11.9826 29.242 13.7497 26.2295 16.1013 23.7032C17.3374 22.3455 18.7229 21.1315 20.2313 20.0844C20.994 19.6057 21.7567 19.1108 22.5519 18.697L23.7608 18.1128L24.3613 17.8207L24.9942 17.5935C28.2523 16.3306 31.7473 15.7961 35.234 16.0275C39.9068 16.3309 44.3852 18.0107 48.1048 20.8553C51.8244 23.6998 54.6187 27.5818 56.1355 32.0119C56.9782 34.4901 57.4219 37.0864 57.45 39.7039C57.4703 44.0538 56.2881 48.3247 54.034 52.0451V51.9153C57.9936 59.0636 59.9897 62.6743 60.4359 63.4695C59.9734 62.6581 57.9044 59.1123 53.8068 52.037V51.9721V51.9072C55.98 48.2228 57.1025 44.0135 57.0524 39.7363C57.0147 37.1608 56.5655 34.6078 55.7217 32.1742C54.2213 27.8347 51.4741 24.0342 47.824 21.2487C44.1739 18.4631 39.7832 16.8163 35.2015 16.5143C31.7835 16.2916 28.3581 16.8177 25.1646 18.056L24.5479 18.275L23.9556 18.5671L22.7709 19.1351C21.9595 19.5489 21.2455 20.0276 20.4909 20.4983C19.0116 21.5172 17.6508 22.6984 16.4339 24.0197C14.1254 26.4996 12.3902 29.4567 11.3512 32.6817C10.3122 35.9066 9.99479 39.3205 10.4215 42.6817C11.1737 48.8395 14.333 54.4492 19.2089 58.2847C21.3888 60.0119 23.8627 61.3313 26.5115 62.1794C28.9371 62.9292 31.4618 63.3094 34.0007 63.3072C38.3079 63.261 42.5191 62.0286 46.1716 59.7452H46.2203H46.3095L60.444 63.4695Z" fill="#263238"/>
<path d="M31.7044 29.2532L32.4266 41.1806C32.4554 41.6511 32.6553 42.0947 32.9886 42.428C33.3218 42.7613 33.7655 42.9612 34.236 42.99C34.731 43.018 35.2179 42.8553 35.5967 42.5354C35.9755 42.2154 36.2174 41.7626 36.2726 41.2699L37.5952 29.3181C37.6182 29.1043 37.5955 28.888 37.5286 28.6836C37.4617 28.4792 37.3521 28.2914 37.2071 28.1325C37.0621 27.9737 36.8849 27.8475 36.6875 27.7624C36.49 27.6772 36.2767 27.635 36.0616 27.6385H33.1649C32.9617 27.6446 32.7617 27.6916 32.5771 27.7769C32.3925 27.8622 32.227 27.9838 32.0906 28.1346C31.9542 28.2854 31.8497 28.4623 31.7833 28.6545C31.717 28.8467 31.6901 29.0503 31.7044 29.2532Z" fill="#B1BFA9"/>
<path d="M37.3841 49.6515C37.2025 50.1964 36.8635 50.6752 36.4099 51.0275C35.9563 51.3797 35.4085 51.5896 34.8356 51.6306C34.2628 51.6716 33.6906 51.5418 33.1915 51.2577C32.6923 50.9737 32.2886 50.548 32.0313 50.0345C31.774 49.5211 31.6747 48.9429 31.7459 48.373C31.8171 47.8031 32.0557 47.2672 32.4314 46.8328C32.8072 46.3985 33.3032 46.0852 33.8569 45.9327C34.4106 45.7802 34.9971 45.7953 35.5423 45.976C35.9047 46.0961 36.2399 46.2865 36.5287 46.5363C36.8175 46.7862 37.0542 47.0905 37.2253 47.4319C37.3964 47.7732 37.4984 48.145 37.5257 48.5259C37.553 48.9068 37.5048 49.2893 37.3841 49.6515Z" fill="#B1BFA9"/>
</svg>
